<?xml version="1.0"?><svg id="Calque_1" xmlns="http://www.w3.org/2000/svg" viewBox="0 0 1245.39 1051.9"><defs></defs><path class="cls-1" d="m794.08,252.38c1.93-.09,3.81-.21,5.61-.3-1.88-.09-3.77.04-5.61.3Z"></path><path class="cls-1" d="m823.42,0h-496.97C146.15,0,0,146.11,0,326.4v112.7c334.71-104.39,676.41-179.61,794.08-186.72,1.84-.26,3.73-.39,5.61-.3t.09,0c.86-.04,1.71-.04,2.53-.09,68.54-2.4,34.35,24.07-48.28,69.31-6.08,4.11-10.88,7.58-13.32,10.19-159,115.23-336.08,205.82-486.48,332.31-123.41,103.32-151.89,139.47-156.31,237.26v.04c41.98,60.61,136.82,110.39,246.26,150.78h.13v-260.74h479.11c262.28,0,421.97-148,421.97-395.58S1085.7,0,823.42,0Zm110.69,239.83c-.81.47-1.93.6-2.87.73-12.89,2.18-25.14,4.24-36.88,6.17-7.24,1.2-14.26,2.31-21.12,3.43-.26.04-.47,0-.73,0-.04-.17-.04-.34-.09-.47,13.54-8.95,27.54-18.16,42.06-27.71,3.34-2.23,6.68-4.54,10.15-6.68,1.16-.73,2.53-1.29,3.86-1.63,2.1-.56,4.2-.9,6.34-1.41,1.2-.26,1.54-.13,1.41.94-.86,6.68.43,12.72,4.71,17.78.81.99,1.54,2.01,2.14,2.83-3.04,2.01-5.95,4.11-9,6.04Zm178.41-84.73c-6.73,12.21-18.42,23.09-33.88,32.64-1.46.9-2.91,1.8-4.41,2.66-6.25,3.56-12.72,6.73-19.32,9.6-1.63.73-3.21,1.46-4.88,2.06-1.37.51-2.27,1.54-3.34,2.61-2.36,2.4-4.41,5.05-6.64,7.58-3.17,3.64-6.47,7.15-9.6,10.75-1.88,2.18-4.37,3.6-7.62,4.5-25.83,6.98-49.9,12.64-72.39,15.68-1.58.21-3.17.43-4.71.43-.69,0-1.58-.39-1.76-.86-.13-.34.56-1.2,1.11-1.67,4.11-3.34,8.4-6.68,12.59-10.11.64-.51,1.11-1.16,1.63-1.71-.04-.13-.09-.26-.17-.39-1.54.13-3.08.09-4.63.39-2.83.51-4.63-.09-6.13-1.58-4.67-4.54-6-10.07-4.5-16.58.13-.64.81-1.37,1.46-1.93,1.16-.99,2.53-1.8,3.73-2.78.51-.39.73-1.03,1.07-1.54-.51-.04-1.03-.26-1.58-.17-4.8.47-9.51,1.03-14.18,1.5-.77.09-1.54.04-2.27.04-.09-1.2.73-2.06,1.8-2.83,3.34-2.31,6.73-4.67,10.15-6.94,13.19-8.82,27.5-17.09,42.54-25.36,1.88-1.03,3.86-2.01,5.74-3.08,2.57-1.5,5.14-2.14,7.84-2.18,6.98-.13,14.18-.26,21.55-.26,2.14,0,4.16-.69,6.17-1.41,12.25-4.5,25.06-8.35,38.68-10.84,14.14-2.61,28.49-3.73,42.54-2.31,3.94.39,4.84,1.5,3.43,4.11Z"></path><path class="cls-2" d="m754.03,321.31c-6.08,4.11-10.88,7.58-13.32,10.19-159,115.23-336.08,205.82-486.48,332.31-123.41,103.32-151.89,139.47-156.31,237.26-14.01-20.22-22.06-41.64-22.87-64.3-6.51-185.65,478.64-405.73,678.98-515.48Z"></path><path class="cls-2" d="m799.69,252.08c-1.8.09-3.68.21-5.61.3,1.84-.26,3.73-.39,5.61-.3Z"></path><style>.cls-1{fill:#f9ff00}.cls-2{fill:#f9ff00;opacity:.6}</style></svg>
